<svg width="505" height="570" viewBox="0 0 505 570" fill="none" xmlns="http://www.w3.org/2000/svg">
<g clip-path="url(#clip0_924_473)">
<path d="M342.295 448.816C358.326 433.745 366.592 411.169 357.979 392.071C345.442 411.288 324.802 426.423 300.871 433.946C291.551 436.877 280.833 439.294 275.763 446.685C272.609 451.284 272.379 457.043 273.8 462.251C275.221 467.459 278.148 472.249 281.045 476.973L281.062 478.309C303.747 472.546 326.264 463.886 342.295 448.816Z" fill="#DFE2B7"/>
<path d="M357.499 392.172C354.796 408.804 345.951 424.793 332.429 436.847C329.493 439.574 326.162 441.842 322.548 443.575C318.829 445.22 314.775 445.968 310.713 445.759C306.886 445.637 302.989 445.129 299.195 445.816C297.334 446.143 295.558 446.841 293.974 447.868C292.39 448.896 291.029 450.232 289.974 451.797C287.458 455.491 286.623 459.749 285.973 463.938C285.252 468.589 284.587 473.429 281.521 477.43C281.149 477.914 282.038 478.386 282.409 477.902C287.743 470.942 285.959 462.046 289.558 454.54C291.238 451.038 294.144 447.953 298.489 446.895C302.288 445.971 306.308 446.492 310.182 446.645C314.151 446.896 318.129 446.296 321.846 444.883C325.548 443.318 328.973 441.166 331.988 438.51C338.589 432.876 344.23 426.209 348.689 418.768C353.639 410.617 356.982 401.596 358.541 392.192C358.634 391.617 357.592 391.602 357.499 392.172Z" fill="white"/>
<path d="M337.061 433.13C339.814 434.835 343.03 435.64 346.263 435.434C349.496 435.228 352.583 434.02 355.097 431.98C355.573 431.571 354.862 430.91 354.385 431.32C352.048 433.223 349.173 434.347 346.163 434.534C343.153 434.72 340.16 433.96 337.606 432.36C337.066 432.015 336.524 432.787 337.061 433.13Z" fill="white"/>
<path d="M312.643 446.042C312.108 443.137 312.194 440.152 312.897 437.282C313.601 434.413 314.904 431.725 316.723 429.395C317.092 428.909 316.204 428.437 315.834 428.923C313.947 431.351 312.597 434.151 311.872 437.138C311.147 440.125 311.065 443.232 311.63 446.253C311.741 446.828 312.754 446.614 312.643 446.042Z" fill="white"/>
<path d="M352.318 410.374C351.182 409.969 350.168 409.281 349.372 408.375C348.576 407.469 348.026 406.375 347.772 405.197C347.669 404.622 346.657 404.836 346.759 405.408C347.045 406.708 347.654 407.915 348.531 408.918C349.407 409.92 350.522 410.686 351.774 411.144C351.892 411.204 352.028 411.222 352.158 411.195C352.288 411.168 352.405 411.097 352.49 410.996C352.525 410.945 352.548 410.887 352.558 410.827C352.569 410.766 352.565 410.704 352.549 410.645C352.533 410.586 352.504 410.531 352.464 410.484C352.424 410.437 352.374 410.4 352.318 410.374Z" fill="white"/>
<path d="M281.96 370.357C282.013 370.718 282.065 371.079 282.111 371.445C282.786 376.294 283.006 381.196 282.768 386.086C282.756 386.464 282.738 386.847 282.714 387.224C281.96 399.121 278.713 410.728 273.183 421.293C270.934 425.606 268.336 429.729 265.416 433.621C261.348 439.052 256.439 444.66 254.726 450.76C254.54 451.393 254.398 452.037 254.303 452.689L279.182 478.223C279.272 478.257 279.356 478.295 279.446 478.329L280.386 479.388C280.554 479.194 280.724 478.99 280.892 478.797C280.99 478.685 281.083 478.567 281.181 478.455C281.245 478.378 281.308 478.302 281.371 478.236C281.392 478.211 281.413 478.185 281.427 478.164C281.49 478.099 281.54 478.032 281.596 477.971C282.548 476.833 283.493 475.687 284.43 474.534C284.437 474.529 284.437 474.529 284.438 474.518C291.552 465.715 297.882 456.318 302.367 446.387C302.502 446.088 302.643 445.785 302.767 445.474C304.748 441.022 306.316 436.398 307.452 431.66C308.057 429.087 308.513 426.482 308.817 423.857C309.585 417.08 309.119 410.221 307.442 403.61C304.092 390.365 295.896 378.196 282.955 370.906C282.624 370.719 282.298 370.538 281.96 370.357Z" fill="#DFE2B7"/>
<path d="M281.644 370.688C291.028 385.379 295.063 402.766 292.63 419.454C292.19 423.127 291.1 426.694 289.411 429.986C287.53 433.295 284.789 436.033 281.476 437.912C278.336 439.814 274.871 441.443 272.319 443.974C271.064 445.206 270.118 446.718 269.56 448.385C269.002 450.052 268.847 451.827 269.107 453.566C269.663 457.829 271.951 461.665 274.339 465.349C276.99 469.44 279.818 473.652 280.146 478.447C280.186 479.028 281.223 478.941 281.183 478.361C280.613 470.017 273.014 463.847 270.679 455.973C269.589 452.299 269.769 448.318 272.505 445.204C274.896 442.481 278.468 440.798 281.666 438.897C284.936 437.094 287.714 434.519 289.758 431.398C291.632 428.2 292.879 424.675 293.432 421.011C294.791 412.894 294.667 404.598 293.067 396.525C291.248 387.146 287.658 378.199 282.489 370.159C282.165 369.652 281.322 370.184 281.644 370.688Z" fill="white"/>
<path d="M293.749 414.066C300.564 414.004 306.378 409.569 307.352 403.726C307.448 403.151 306.422 402.994 306.325 403.571C305.413 409.044 300.019 413.108 293.65 413.166C292.979 413.172 293.083 414.072 293.749 414.066Z" fill="white"/>
<path d="M283.213 437.13C280.856 435.255 278.905 432.92 277.479 430.269C276.053 427.618 275.182 424.705 274.917 421.707C274.875 421.126 273.838 421.214 273.88 421.794C274.162 424.913 275.076 427.943 276.567 430.7C278.057 433.456 280.093 435.881 282.55 437.827C283.038 438.228 283.698 437.529 283.213 437.13Z" fill="white"/>
<path d="M290.139 387.927C288.88 388.182 287.58 388.157 286.331 387.853C285.083 387.549 283.917 386.974 282.917 386.168C282.435 385.763 281.776 386.463 282.254 386.866C283.363 387.751 284.652 388.385 286.03 388.724C287.409 389.063 288.845 389.098 290.239 388.827C290.515 388.773 290.734 388.599 290.707 388.334C290.682 388.206 290.61 388.093 290.504 388.018C290.398 387.942 290.268 387.91 290.139 387.927Z" fill="white"/>
<path d="M224.31 477.55C193.344 498.693 162.557 504.058 137.619 492.659C105.616 478.031 86.2301 437.755 84.4316 382.16L86.3275 382.337C88.1005 437.159 107.028 476.787 138.256 491.061C162.526 502.155 192.649 496.823 223.076 476.048L224.31 477.55Z" fill="#F2F2F2"/>
<path d="M415.671 119.555C412.621 153.107 403.934 188.486 390.31 222.622C373.461 264.835 350.442 302.017 323.74 330.146L322.258 328.856C348.831 300.862 371.745 263.844 388.523 221.805C403.687 183.816 412.706 144.282 414.617 107.495L416.511 107.811C416.31 111.696 416.03 115.611 415.671 119.555Z" fill="#F2F2F2"/>
<path d="M333.411 71.8704L331.57 72.0718C323.362 39.8633 307.454 17.5496 285.562 7.54261C257.732 -5.17809 223.32 3.3641 188.664 31.596C153.831 59.972 122.995 104.794 101.837 157.807L100.051 156.991C121.302 103.746 152.296 58.7076 187.324 30.1739C222.527 1.49587 257.642 -7.10896 286.2 5.94482C308.719 16.2386 325.044 39.0354 333.411 71.8704Z" fill="#F2F2F2"/>
<path d="M435.554 352.28C398.049 411.866 352.547 454.44 307.43 472.159L306.518 470.488C351.322 452.892 396.557 410.535 433.891 351.222L435.554 352.28Z" fill="#F2F2F2"/>
<path d="M493.419 218.783C492.801 225.583 492.009 232.466 491.042 239.433L489.161 238.978C496.38 186.99 493.819 139.322 481.754 101.12L483.567 100.817C494.09 134.142 497.435 174.591 493.419 218.783Z" fill="#F2F2F2"/>
<path d="M101.695 167.132C96.8814 177.259 92.3026 187.751 88.0859 198.316C63.8211 259.112 51.5247 321.2 52.5296 377.873L50.6331 377.671C49.6273 320.787 61.959 258.485 86.2998 197.5C90.5286 186.905 95.1205 176.384 99.9482 166.228L101.695 167.132Z" fill="#F2F2F2"/>
<path d="M223.4 519.323C192.434 540.466 161.646 545.832 136.708 534.433C104.706 519.804 85.3199 479.529 83.5215 423.933L85.4173 424.111C87.1903 478.932 106.118 518.561 137.346 532.835C161.616 543.929 191.738 538.597 222.166 517.822L223.4 519.323Z" fill="#F2F2F2"/>
<path d="M414.761 161.329C411.711 194.881 403.024 230.26 389.399 264.395C372.551 306.609 349.532 343.791 322.829 371.92L321.348 370.63C347.921 342.635 370.835 305.618 387.613 263.579C402.777 225.589 411.796 186.055 413.707 149.268L415.601 149.585C415.4 153.47 415.12 157.385 414.761 161.329Z" fill="#F2F2F2"/>
<path d="M411.421 115.962L409.58 116.163C401.372 83.955 385.463 61.6413 363.572 51.6343C335.742 38.9136 301.33 47.4558 266.673 75.6876C231.841 104.064 201.005 148.885 179.847 201.899L178.061 201.082C199.312 147.838 230.306 102.799 265.334 74.2655C300.537 45.5875 335.652 36.9827 364.209 50.0365C386.729 60.3303 403.054 83.127 411.421 115.962Z" fill="#F2F2F2"/>
<path d="M433.097 408.735C395.592 468.32 350.09 510.895 304.973 528.614L304.061 526.943C348.865 509.346 394.1 466.99 431.434 407.677L433.097 408.735Z" fill="#F2F2F2"/>
<path d="M492.509 260.556C491.891 267.357 491.098 274.24 490.132 281.206L488.251 280.751C495.47 228.763 492.909 181.096 480.844 142.894L482.656 142.591C493.18 175.916 496.525 216.364 492.509 260.556Z" fill="#F2F2F2"/>
<path d="M100.785 208.906C95.9713 219.033 91.3925 229.525 87.1758 240.09C62.9109 300.885 50.6146 362.974 51.6194 419.646L49.723 419.444C48.7171 362.561 61.0489 300.259 85.3897 239.273C89.6184 228.679 94.2103 218.157 99.0381 208.002L100.785 208.906Z" fill="#F2F2F2"/>
<path d="M463.585 179.591C465.681 176.444 464.44 171.94 460.813 169.53C457.186 167.12 452.547 167.718 450.45 170.864C448.354 174.011 449.595 178.516 453.222 180.925C456.849 183.335 461.488 182.738 463.585 179.591Z" fill="#F9D549"/>
<path d="M222.625 219.705C227.015 212.987 234.182 207.708 242.164 207.262C250.147 206.816 259.739 213.604 263.679 220.589C270.885 233.365 267.758 245.65 257.833 254.537C256.485 254.08 251.779 252.701 250.409 252.26L249.54 250.693L248.468 251.646C236.202 252.868 224.353 251.506 215.121 242.379C216.269 234.437 218.236 226.422 222.625 219.705Z" fill="#2F2E41"/>
<path d="M255.513 309.382L254.063 322.812L254.916 340.423L215.854 335.789L212.184 309.382L216.86 309.428L255.513 309.382Z" fill="#FFB6B6"/>
<path d="M239.474 251.345C248.432 251.345 255.695 244.092 255.695 235.146C255.695 226.201 248.432 218.948 239.474 218.948C230.516 218.948 223.254 226.201 223.254 235.146C223.254 244.092 230.516 251.345 239.474 251.345Z" fill="#FFB7B7"/>
<path d="M221.501 265.243L230.783 259.681L249.347 257.828L265.755 266.171L265.591 291.66L255.182 318.097L211.556 312.535L209.899 303.21C209.899 303.21 197.832 287.026 210.827 277.756L221.501 265.243Z" fill="black"/>
<path d="M233.411 210.547C236.925 209.563 240.64 209.54 244.166 210.48C247.693 211.421 250.902 213.29 253.457 215.893C256.013 218.495 257.821 221.736 258.693 225.275C259.565 228.815 259.469 232.524 258.415 236.013C248.536 236.801 238.771 235.88 231.074 228.9L230.389 222.913L227.58 227.923C224.747 227.127 221.91 226.326 219.068 225.521C219.938 221.989 221.72 218.748 224.236 216.12C226.753 213.493 229.917 211.571 233.411 210.547Z" fill="#2F2E41"/>
<path d="M165.792 189.557C165.352 190.493 165.123 191.515 165.121 192.549C165.119 193.584 165.345 194.606 165.781 195.544C166.218 196.482 166.855 197.313 167.648 197.978C168.441 198.644 169.371 199.128 170.371 199.396L200.592 256.339L212.79 246.937L179.249 193.92C179.588 192.212 179.288 190.439 178.405 188.936C177.523 187.434 176.119 186.307 174.461 185.77C172.802 185.232 171.003 185.32 169.406 186.018C167.808 186.716 166.522 187.975 165.792 189.557Z" fill="#FFB6B6"/>
<path d="M215.365 275.58C215.365 275.58 212.565 278.06 208.582 271.212C205.394 265.729 189.493 241.178 187.242 232.667C186.007 232.702 184.795 232.325 183.798 231.597C182.801 230.868 182.075 229.829 181.734 228.643L198.814 222.023C202.527 223.877 201.496 226.446 200.555 227.775L206.916 237.304L228.074 261.015L217.421 273.823L215.365 275.58Z" fill="black"/>
<path d="M504.079 570H0.92127C0.676933 570 0.442594 569.903 0.269821 569.731C0.0970489 569.558 0 569.324 0 569.08C0 568.836 0.0970489 568.602 0.269821 568.429C0.442594 568.257 0.676933 568.16 0.92127 568.16H504.079C504.323 568.16 504.557 568.257 504.73 568.429C504.903 568.602 505 568.836 505 569.08C505 569.324 504.903 569.558 504.73 569.731C504.557 569.903 504.323 570 504.079 570Z" fill="#CCCCCC"/>
<path d="M383.619 56.5448C374.538 47.6059 362.41 42.6724 350.249 39.5161C336.483 35.9433 322.247 33.8387 308.183 31.8195C293.527 29.7151 278.812 28.092 264.039 26.9501C249.286 25.8142 234.506 25.164 219.699 24.9994C206.506 24.8518 193.224 24.8473 180.094 26.3091C167.728 27.6859 155.392 30.4487 144.243 36.1208C134.319 41.061 125.981 48.6819 120.178 58.1175C114.842 66.9003 111.67 77.4286 112.773 87.7525C113.29 92.8362 114.875 97.7538 117.425 102.184C120.413 107.08 124.221 111.428 128.683 115.036C137.895 122.804 148.909 128.482 156.833 137.715C158.926 140.133 160.754 142.768 162.286 145.574C163.437 147.702 164.731 149.534 166.871 150.776C168.782 151.864 170.972 152.364 173.167 152.211C175.361 152.058 177.461 151.26 179.202 149.917C181.671 147.982 183.443 145 185.354 142.545L192.015 133.985C192.496 133.217 193.054 132.5 193.68 131.845C194.129 131.474 193.388 131.801 193.535 131.708C193.616 131.657 193.758 131.686 193.846 131.649C194.29 131.522 194.745 131.438 195.204 131.397C200.068 130.504 204.943 129.669 209.827 128.892C227.863 125.985 246.015 123.588 264.244 122.296C273.639 121.547 283.069 121.322 292.49 121.623C304.672 122.121 316.685 124.537 328.822 125.579C341.889 126.701 355.615 126.546 367.928 121.514C377.783 117.487 386.934 110.711 392.27 101.353C394.801 96.9266 396.302 91.9875 396.658 86.9026C397.31 75.3688 391.694 64.4926 383.619 56.5448Z" fill="#E6E6E6"/>
<path d="M212.437 34.4525C210.113 34.4525 207.791 34.4648 205.47 34.4894C183.184 34.7255 160.151 36.5249 142.672 47.9968C127.158 58.1795 116.285 80.8613 125.487 97.1277C129.712 104.597 137.368 110.034 145.473 115.79C148.65 118.046 151.935 120.379 155.084 122.892C161.962 128.381 168.439 135.747 172.165 144.029L188.53 122.998L191.622 122.406C194.597 121.838 264.904 108.524 302.348 112.847C305.792 113.244 309.273 113.702 312.639 114.144C327.85 116.143 342.218 118.029 356.011 115.243C370.411 112.333 386.222 101.228 387.164 86.3763C387.808 76.209 381.184 65.0552 370.289 57.9606C359.273 50.7874 345.534 47.8258 332.405 45.4069C292.832 38.1252 252.677 34.4585 212.437 34.4525Z" fill="white"/>
<path d="M339.443 66.8141H181.398C180.486 66.8141 179.611 66.4523 178.966 65.8083C178.321 65.1643 177.959 64.2909 177.959 63.3801C177.959 62.4694 178.321 61.5959 178.966 60.9519C179.611 60.3079 180.486 59.9461 181.398 59.9461H339.443C340.355 59.9461 341.23 60.3079 341.875 60.9519C342.52 61.5959 342.882 62.4694 342.882 63.3801C342.882 64.2909 342.52 65.1643 341.875 65.8083C341.23 66.4523 340.355 66.8141 339.443 66.8141Z" fill="black"/>
<path d="M339.443 87.8924H181.398C180.486 87.8924 179.611 87.5306 178.966 86.8866C178.321 86.2426 177.959 85.3692 177.959 84.4584C177.959 83.5477 178.321 82.6742 178.966 82.0302C179.611 81.3862 180.486 81.0244 181.398 81.0244H339.443C340.355 81.0244 341.23 81.3862 341.875 82.0302C342.52 82.6742 342.882 83.5477 342.882 84.4584C342.882 85.3692 342.52 86.2426 341.875 86.8866C341.23 87.5306 340.355 87.8924 339.443 87.8924Z" fill="black"/>
<path d="M199.816 108.97H181.398C180.486 108.97 179.611 108.608 178.966 107.964C178.321 107.32 177.959 106.447 177.959 105.536C177.959 104.625 178.321 103.752 178.966 103.108C179.611 102.464 180.486 102.102 181.398 102.102H199.816C200.728 102.102 201.602 102.464 202.247 103.108C202.892 103.752 203.254 104.625 203.254 105.536C203.254 106.447 202.892 107.32 202.247 107.964C201.602 108.608 200.728 108.97 199.816 108.97Z" fill="black"/>
<path d="M171.26 191.339C179.332 191.339 185.876 184.804 185.876 176.744C185.876 168.683 179.332 162.148 171.26 162.148C163.188 162.148 156.645 168.683 156.645 176.744C156.645 184.804 163.188 191.339 171.26 191.339Z" fill="#E6E6E6"/>
<path d="M128.735 356.226C130.832 353.079 129.591 348.575 125.964 346.165C122.337 343.755 117.697 344.353 115.601 347.499C113.504 350.646 114.745 355.15 118.372 357.56C121.999 359.97 126.639 359.372 128.735 356.226Z" fill="#F9D549"/>
<path d="M442.331 355.233C444.427 352.086 443.186 347.581 439.559 345.172C435.932 342.762 431.293 343.359 429.196 346.506C427.1 349.653 428.341 354.157 431.968 356.567C435.595 358.977 440.235 358.379 442.331 355.233Z" fill="#E6E6E6"/>
<path d="M323.95 241.649C326.046 238.503 324.806 233.998 321.179 231.589C317.552 229.179 312.912 229.776 310.815 232.923C308.719 236.07 309.96 240.574 313.587 242.984C317.214 245.393 321.854 244.796 323.95 241.649Z" fill="#E6E6E6"/>
<path d="M275.774 553.218H267.234L263.17 520.322H275.774V553.218Z" fill="#FFB6B6"/>
<path d="M280.28 567.995H274.156L273.062 562.22L270.263 567.995H254.019C253.24 567.995 252.482 567.746 251.855 567.285C251.228 566.825 250.764 566.176 250.533 565.433C250.301 564.691 250.313 563.894 250.567 563.159C250.821 562.424 251.303 561.789 251.944 561.347L264.916 552.401V546.563L278.56 547.377L280.28 567.995Z" fill="black"/>
<path d="M227.801 553.218H219.261L215.197 520.322H227.801V553.218Z" fill="#FFB6B6"/>
<path d="M232.31 567.995H226.185L225.092 562.22L222.292 567.995H206.048C205.27 567.995 204.511 567.746 203.884 567.285C203.257 566.825 202.794 566.176 202.562 565.433C202.33 564.691 202.342 563.894 202.596 563.159C202.85 562.424 203.333 561.789 203.973 561.347L216.945 552.401V546.563L230.589 547.377L232.31 567.995Z" fill="black"/>
<path d="M279.458 524.85H279.365L277.722 471.363C278.785 469.316 279.325 467.038 279.293 464.732C279.26 462.426 278.658 460.163 277.539 458.146L277.303 457.721L277.913 454.899C278.696 451.273 278.337 447.493 276.884 444.079L275.352 394.186C280.826 358.758 254.738 335.653 254.738 335.653H215.658L207.268 364.439C201.721 418.403 202.728 470.99 211.53 521.937L211.29 522.058C210.426 522.356 210.055 523.551 210.462 524.728C210.868 525.905 211.898 526.617 212.762 526.319L233.401 525.602C234.265 525.305 234.636 524.109 234.229 522.933C233.823 521.756 232.792 521.044 231.928 521.341L230.525 522.05L233.518 470.437L233.186 461.01L233.87 450.314L237.034 402.207L249.008 461.365L261.239 525.445C260.902 525.751 260.665 526.151 260.56 526.593C260.455 527.035 260.487 527.499 260.651 527.922C260.816 528.346 261.105 528.71 261.481 528.967C261.857 529.223 262.301 529.359 262.757 529.358H279.458C280.056 529.358 280.63 529.12 281.054 528.698C281.477 528.275 281.715 527.702 281.715 527.104C281.715 526.506 281.477 525.933 281.054 525.51C280.63 525.088 280.056 524.85 279.458 524.85Z" fill="#16352D"/>
<path d="M261.233 375.295C262.115 374.753 262.867 374.024 263.436 373.16C264.006 372.296 264.378 371.317 264.528 370.294C264.678 369.27 264.601 368.226 264.303 367.235C264.005 366.245 263.494 365.331 262.804 364.559L268.79 300.391L253.427 301.576L252.374 364.279C251.152 365.522 250.429 367.169 250.343 368.908C250.256 370.648 250.811 372.359 251.903 373.717C252.995 375.075 254.548 375.985 256.268 376.276C257.987 376.567 259.754 376.218 261.233 375.295Z" fill="#FFB6B6"/>
<path d="M265.186 266.427C265.186 266.427 268.89 265.886 268.461 273.794C268.117 280.125 269.75 319.147 266.961 327.498C268.012 328.145 268.819 329.123 269.253 330.278C269.687 331.433 269.724 332.7 269.358 333.878L251.439 330.064C249.352 326.481 249.784 322.802 251.301 322.206L251.212 310.755L247.252 273.009L262.502 266.771L265.186 266.427Z" fill="black"/>
</g>
<defs>
<clipPath id="clip0_924_473">
<rect width="505" height="570" fill="white"/>
</clipPath>
</defs>
</svg>
